# xmcd
#
# Track frame offsets: 
#        150
#        17372
#        35827
#
# Disc length: 493 seconds
#
# Revision: 0
# Processed by: cddbd v1.5.2PL0 Copyright (c) Steve Scherf et al.
# Submitted via: ExactAudioCopy v1.1
#
DISCID=1a01eb03
DTITLE=Luke Bryan - All My Friends Say
DYEAR=2007
DGENRE=Country
TTITLE0=All My Friends Say (Edit)
TTITLE1=All My Friends Say (Album Version)
TTITLE2=Suggested Research Hook
EXTD=
EXTT0=
EXTT1=
EXTT2=
PLAYORDER=
